<svg xmlns="http://www.w3.org/2000/svg" viewBox="0 0 128 128" fill="none">
  <rect width="128" height="128" rx="24" fill="#1a1a2e"/>
  <!-- Chat bubble -->
  <path d="M32 40h64c4.4 0 8 3.6 8 8v32c0 4.4-3.6 8-8 8H72l-16 16V88H32c-4.4 0-8-3.6-8-8V48c0-4.4 3.6-8 8-8z" fill="#0e639c"/>
  <!-- OpenRouter logo: diamond with connected nodes -->
  <path d="M64 48 L80 64 L64 80 L48 64 Z" stroke="#fff" stroke-width="2.5" fill="none"/>
  <!-- Center node -->
  <circle cx="64" cy="64" r="4" fill="#fff"/>
  <!-- Corner nodes -->
  <circle cx="64" cy="48" r="3" fill="#fff"/>
  <circle cx="80" cy="64" r="3" fill="#fff"/>
  <circle cx="64" cy="80" r="3" fill="#fff"/>
  <circle cx="48" cy="64" r="3" fill="#fff"/>
  <!-- Connection lines from center to corners -->
  <line x1="64" y1="52" x2="64" y2="60" stroke="#fff" stroke-width="1.5"/>
  <line x1="68" y1="64" x2="76" y2="64" stroke="#fff" stroke-width="1.5"/>
  <line x1="64" y1="68" x2="64" y2="76" stroke="#fff" stroke-width="1.5"/>
  <line x1="52" y1="64" x2="60" y2="64" stroke="#fff" stroke-width="1.5"/>
</svg>
