<svg xmlns="http://www.w3.org/2000/svg" viewBox="0 0 128 128" fill="none">
  <rect width="128" height="128" rx="24" fill="#1a1a2e"/>
  <g transform="translate(12, 24) scale(0.203125)">
    <!-- Upper curve -->
    <path d="M3 248.945C18 248.945 76 236 106 219C136 202 136 202 198 158C276.497 102.293 332 120.945 423 120.945"
      stroke="#ffffff" stroke-width="70" stroke-linecap="round" fill="none"/>
    <!-- Upper arrow -->
    <path d="M511 121.5L357.25 210.268L357.25 32.7324L511 121.5Z" fill="#ffffff"/>
    <!-- Lower curve -->
    <path d="M0 249C15 249 73 261.945 103 278.945C133 295.945 133 295.945 195 339.945C273.497 395.652 329 377 420 377"
      stroke="#ffffff" stroke-width="70" stroke-linecap="round" fill="none"/>
    <!-- Lower arrow -->
    <path d="M508 376.445L354.25 287.678L354.25 465.213L508 376.445Z" fill="#ffffff"/>
  </g>
</svg>
