<svg xmlns="http://www.w3.org/2000/svg" viewBox="0 0 128 128">
  <defs>
    <filter id="core-glow" x="-100%" y="-100%" width="300%" height="300%">
      <feGaussianBlur stdDeviation="5" result="blur"/>
      <feMerge>
        <feMergeNode in="blur"/>
        <feMergeNode in="SourceGraphic"/>
      </feMerge>
    </filter>
  </defs>

  <!-- Background -->
  <rect width="128" height="128" rx="16" fill="#0d0d1a"/>

  <!-- Left { bracket -->
  <path
    d="M 40,20 L 28,20 Q 22,20 22,30 L 22,56 Q 22,64 14,64 Q 22,64 22,72 L 22,98 Q 22,108 28,108 L 40,108"
    fill="none" stroke="#ffffff" stroke-width="2"
    stroke-linecap="round" stroke-linejoin="round" opacity="0.35"/>

  <!-- Right } bracket -->
  <path
    d="M 88,20 L 100,20 Q 106,20 106,30 L 106,56 Q 106,64 114,64 Q 106,64 106,72 L 106,98 Q 106,108 100,108 L 88,108"
    fill="none" stroke="#ffffff" stroke-width="2"
    stroke-linecap="round" stroke-linejoin="round" opacity="0.35"/>

  <!-- Connection traces (7 lines) -->
  <g stroke="#ffffff" stroke-width="1" fill="none" opacity="0.20">
    <line x1="52" y1="34" x2="57" y2="52"/>
    <line x1="76" y1="34" x2="71" y2="52"/>
    <line x1="57" y1="52" x2="71" y2="52"/>
    <line x1="57" y1="52" x2="71" y2="76"/>
    <line x1="57" y1="76" x2="71" y2="76"/>
    <line x1="57" y1="76" x2="52" y2="94"/>
    <line x1="71" y1="76" x2="76" y2="94"/>
  </g>

  <!-- Cyan outer nodes -->
  <g fill="#38bdf8">
    <circle cx="52" cy="34" r="4.5"/>
    <circle cx="76" cy="34" r="4.5"/>
    <circle cx="52" cy="94" r="4.5"/>
    <circle cx="76" cy="94" r="4.5"/>
  </g>

  <!-- Purple lower-centre nodes -->
  <g fill="#a78bfa">
    <circle cx="57" cy="76" r="5.5"/>
    <circle cx="71" cy="76" r="5.5"/>
  </g>

  <!-- White glowing upper-centre nodes -->
  <circle cx="57" cy="52" r="7" fill="#ffffff" filter="url(#core-glow)"/>
  <circle cx="71" cy="52" r="7" fill="#ffffff" filter="url(#core-glow)"/>
</svg>
